<svg width="302" height="52" viewBox="0 0 302 52" fill="none" xmlns="http://www.w3.org/2000/svg">
<path fill-rule="evenodd" clip-rule="evenodd" d="M61.3412 5.50126H63.9635V10.6739H68.5964V5.50126H71.2187V19.256H68.5964V13.2409H63.9635V19.256H61.3412V5.50126ZM77.0171 19.2561H79.6395V5.50134H77.0171V19.2561ZM85.4395 5.50126H87.9472L93.8432 14.5429V5.50126H96.4656V19.256H93.9393L88.0618 10.2329V19.256H85.4395V5.50126ZM108.447 0.807726H111.453L108.045 4.46672H106.208L108.447 0.807726ZM109.308 5.50142L114.611 19.2562H111.893L110.821 16.4211H105.212L104.083 19.2562H101.365L106.667 5.50142H109.308ZM108.007 9.14103L106.189 13.8541H109.826L108.007 9.14103ZM122.305 10.8843H123.511C124.698 10.8843 125.311 10.4053 125.311 9.46671C125.311 8.56609 124.679 8.06853 123.434 8.06853H122.305V10.8843ZM119.683 5.50158H122.88C124.621 5.50158 125.847 5.71159 126.765 6.6122C127.454 7.28262 127.876 8.31731 127.876 9.48609C127.876 11.2865 126.976 12.5126 125.234 13.1451L128.488 19.2563H125.636L122.554 13.4318H122.305V19.2563H119.683V5.50158ZM133.291 19.2561H135.914V5.50134H133.291V19.2561ZM143.685 12.4168C143.685 15.2139 145.791 17.0717 148.222 17.0717C150.71 17.0717 152.701 15.0225 152.701 12.3974C152.701 9.8692 150.806 7.66572 148.184 7.66572C145.714 7.66572 143.685 9.58164 143.685 12.4168ZM155.343 12.4168C155.343 16.4594 152.185 19.5813 148.241 19.5813C144.164 19.5813 141.043 16.3633 141.043 12.3594C141.043 8.27878 144.298 5.15612 148.203 5.15612C151.993 5.15612 155.343 8.22143 155.343 12.4168ZM174.426 9.14111L172.607 13.8542H176.244L174.426 9.14111ZM173.085 5.5015H175.728L181.03 19.2563H178.312L177.239 16.4211H171.631L170.502 19.2563H167.783L173.085 5.5015ZM188.571 8.06829V16.6891H189.949C191.385 16.6891 192.4 16.4977 193.203 15.6351C193.835 14.9453 194.218 13.8346 194.218 12.4938C194.218 9.61993 192.629 8.06829 189.642 8.06829H188.571ZM185.948 5.50134H189.26C191.672 5.50134 193.375 5.78889 194.869 7.24441C196.113 8.45115 196.86 10.3671 196.86 12.5512C196.86 14.9073 195.979 16.8612 194.505 18.0106C192.936 19.2367 191.308 19.2561 189.298 19.2561H185.948V5.50134ZM201.146 5.50126H203.845L207.29 15.2715L210.812 5.50126H213.493L208.535 19.256H206.027L201.146 5.50126ZM218.488 5.50126H225.991V8.06821H221.11V10.5205H225.991V13.0874H221.11V16.6891H225.991V19.256H218.488V5.50126ZM231.293 5.50126H233.8L239.696 14.5429V5.50126H242.319V19.256H239.792L233.915 10.2329V19.256H231.293V5.50126ZM246.969 5.50126H254.569V8.06821H252.041V19.256H249.419V8.06821H246.969V5.50126ZM259.047 19.2561H261.669V5.50134H259.047V19.2561ZM268.483 15.2906C269.115 16.4779 269.843 17.091 270.761 17.091C271.642 17.091 272.35 16.5167 272.35 15.8075C272.35 15.31 272.025 14.7349 271.47 14.2753C268.617 11.8804 266.933 10.5775 266.933 8.6236C266.933 6.66971 268.637 5.15604 270.704 5.15604C272.445 5.15604 273.594 6.09542 274.685 7.35951L272.733 9.08401C272.082 8.16401 271.412 7.66645 270.666 7.66645C269.977 7.66645 269.498 8.06869 269.498 8.6236C269.498 9.15993 269.9 9.50483 270.302 9.84973C272.867 12.1106 274.915 13.1832 274.915 15.6928C274.915 17.9916 273.193 19.6006 270.704 19.6006C268.694 19.6006 267.297 18.6241 266.282 16.612L268.483 15.2906ZM278.934 5.50126H286.534V8.06821H284.007V19.256H281.384V8.06821H278.934V5.50126ZM295.396 9.14111L293.578 13.8542H297.215L295.396 9.14111ZM294.056 5.5015H296.698L302 19.2563H299.282L298.21 16.4211H292.601L291.472 19.2563H288.754L294.056 5.5015ZM63.9637 34.7849V43.4057H65.3422C66.7773 43.4057 67.7918 43.2143 68.5965 42.3516C69.2277 41.6618 69.6111 40.5512 69.6111 39.2104C69.6111 36.3365 68.0219 34.7849 65.0355 34.7849H63.9637ZM61.3413 32.2179H64.6529C67.0646 32.2179 68.7684 32.5055 70.2616 33.961C71.5062 35.1677 72.2528 37.0837 72.2528 39.2677C72.2528 41.6239 71.3722 43.5778 69.8976 44.7272C68.3286 45.9533 66.7014 45.9727 64.6909 45.9727H61.3413V32.2179ZM79.5635 39.1333C79.5635 41.9305 81.6693 43.7883 84.1003 43.7883C86.5887 43.7883 88.5798 41.7391 88.5798 39.1139C88.5798 36.5858 86.6847 34.3823 84.0624 34.3823C81.5926 34.3823 79.5635 36.2982 79.5635 39.1333ZM91.2216 39.1333C91.2216 43.176 88.0633 46.2979 84.1197 46.2979C80.0421 46.2979 76.9218 43.0799 76.9218 39.076C76.9218 34.9954 80.1761 31.8727 84.081 31.8727C87.8712 31.8727 91.2216 34.938 91.2216 39.1333ZM105.786 42.0071C106.418 43.1945 107.146 43.8076 108.064 43.8076C108.945 43.8076 109.653 43.2333 109.653 42.5241C109.653 42.0265 109.328 41.4514 108.773 40.9918C105.92 38.5969 104.236 37.2941 104.236 35.3402C104.236 33.3863 105.94 31.8726 108.007 31.8726C109.749 31.8726 110.897 32.8112 111.988 34.0761L110.036 35.8006C109.385 34.8806 108.715 34.383 107.969 34.383C107.28 34.383 106.801 34.7853 106.801 35.3402C106.801 35.8765 107.203 36.2214 107.605 36.5663C110.17 38.8271 112.218 39.8998 112.218 42.4094C112.218 44.7082 110.496 46.3172 108.007 46.3172C105.997 46.3172 104.6 45.3406 103.585 43.3286L105.786 42.0071ZM121.846 27.5243H124.851L121.444 31.1833H119.606L121.846 27.5243ZM117.616 32.218H125.12V34.7849H120.238V37.2372H125.12V39.8041H120.238V43.4058H125.12V45.9728H117.616V32.218ZM129.061 32.2178H136.661V34.7848H134.134V45.9726H131.512V34.7848H129.061V32.2178ZM141.14 45.9724H143.762V32.2177H141.14V45.9724ZM150.882 32.2178H153.447L156.625 41.8152L159.841 32.2178H162.368L164.684 45.9726H162.157L160.683 37.275L157.755 45.9726H155.458L152.567 37.275L151.054 45.9726H148.508L150.882 32.2178ZM171.631 39.1333C171.631 41.9305 173.737 43.7883 176.168 43.7883C178.656 43.7883 180.647 41.7391 180.647 39.1139C180.647 36.5858 178.752 34.3823 176.129 34.3823C173.66 34.3823 171.631 36.2982 171.631 39.1333ZM183.289 39.1333C183.289 43.176 180.131 46.2979 176.186 46.2979C172.11 46.2979 168.989 43.0799 168.989 39.076C168.989 34.9954 172.244 31.8727 176.149 31.8727C179.939 31.8727 183.289 34.938 183.289 39.1333ZM199.481 34.7849V43.4057H200.86C202.296 43.4057 203.31 43.2143 204.114 42.3516C204.746 41.6618 205.129 40.5512 205.129 39.2104C205.129 36.3365 203.539 34.7849 200.553 34.7849H199.481ZM196.859 32.2179H200.17C202.582 32.2179 204.286 32.5055 205.779 33.961C207.024 35.1677 207.77 37.0837 207.77 39.2677C207.77 41.6239 206.89 43.5778 205.415 44.7272C203.846 45.9533 202.219 45.9727 200.208 45.9727H196.859V32.2179ZM212.918 45.9724H215.54V32.2177H212.918V45.9724ZM226.872 35.8577L225.054 40.5708H228.691L226.872 35.8577ZM225.532 32.2181H228.174L233.476 45.9728H230.758L229.686 43.1377H224.077L222.948 45.9728H220.23L225.532 32.2181ZM28.2818 47.2164H26.4739V18.6722H26.4569C26.4254 16.8637 25.9331 15.0827 24.9993 13.4761C23.5586 10.998 21.2389 9.22907 18.4689 8.49647C12.7504 6.9836 6.8681 10.4092 5.35637 16.1319C5.07953 17.1795 4.96896 18.2328 5.0069 19.2643V47.2164H3.35068V21.324C3.35068 17.5188 4.35555 13.7653 6.25713 10.4697C8.1587 7.17422 10.9037 4.42634 14.1968 2.52333L15.8167 1.58799L17.4357 2.52333C20.7288 4.42634 23.4746 7.17422 25.3754 10.4697C27.277 13.7653 28.2818 17.5188 28.2818 21.324V47.2164ZM10.116 28.0248V47.2164H6.03758V23.4677C6.91815 25.3246 8.32335 26.9223 10.116 28.0248ZM6.11426 17.602L7.32253 18.8111L6.10054 20.034C6.06825 19.7739 6.04727 19.5114 6.03758 19.2465V18.6722H6.03275C6.04001 18.3168 6.06664 17.9598 6.11426 17.602ZM8.03036 12.9737L8.46217 14.6134L6.81645 15.0479C7.13769 14.2967 7.54771 13.6021 8.03036 12.9737ZM11.4485 11.6272L9.8028 11.1983C10.442 10.7056 11.1394 10.2937 11.8787 9.97299L11.4485 11.6272ZM13.4574 9.44312L15.2904 11.2767V16.2296C15.0894 16.2579 14.8965 16.308 14.7125 16.3783L12.1854 12.069L12.8222 9.62001C13.0313 9.55378 13.2436 9.49481 13.4574 9.44312ZM15.702 10.5222L14.4389 9.25815C14.8634 9.19999 15.2945 9.17011 15.7295 9.17011C16.1411 9.17011 16.556 9.19676 16.9725 9.25088L15.702 10.5222ZM18.4866 9.57316L19.1404 12.0795L16.6205 16.3815C16.4583 16.3193 16.2896 16.2716 16.1145 16.2417V11.2767L17.9571 9.43262C18.0403 9.452 18.1226 9.47139 18.2057 9.4932C18.3002 9.51824 18.3938 9.54489 18.4866 9.57316ZM19.8765 11.6369L19.4245 9.90352C20.2219 10.2307 20.9645 10.6587 21.6392 11.1773L19.8765 11.6369ZM22.8838 14.6828L23.3665 12.8961C23.636 13.2427 23.8838 13.6094 24.1082 13.9947C24.331 14.3767 24.5247 14.7701 24.6909 15.1715L22.8838 14.6828ZM21.3648 28.0087C23.1631 26.8981 24.5666 25.3141 25.4432 23.4305V47.2164H21.3648V28.0087ZM16.2557 29.6015C17.6609 29.5337 19.0427 29.1864 20.3341 28.5693V47.2164H16.2557V29.6015ZM12.9861 29.2542C13.727 29.4497 14.4768 29.5644 15.225 29.6007V47.2164H11.1467V28.583C11.7278 28.8576 12.342 29.0838 12.9861 29.2542ZM11.4146 26.0015L11.8747 27.7809C11.0708 27.4336 10.3331 26.9837 9.67123 26.453L11.4146 26.0015ZM8.44684 23.0073L7.99405 24.7229C7.49283 24.0581 7.07957 23.3312 6.76237 22.5614L8.44684 23.0073ZM8.07637 19.2239H13.0168C13.0426 19.4185 13.0886 19.6075 13.154 19.7877L8.89075 22.2706L6.42903 21.6204C6.37092 21.4241 6.32007 21.2262 6.27406 21.0267L8.07637 19.2239ZM23.2309 18.4961H18.3042C18.2743 18.2837 18.2186 18.0785 18.1412 17.8855L22.4359 15.4163L25.0275 16.1165C25.0727 16.2684 25.1139 16.4211 25.1518 16.5737L23.2309 18.4961ZM23.314 24.9272L22.8297 23.0598L24.6926 22.5759C24.3439 23.4273 23.8798 24.2172 23.314 24.9272ZM17.7416 20.5461L21.9709 23.0339L22.6554 25.6711C22.5981 25.7293 22.54 25.7866 22.481 25.8432L19.8393 25.1582L17.3575 20.9362C17.4987 20.8199 17.627 20.6891 17.7416 20.5461ZM23.2309 19.3208L25.1349 21.2262C25.1236 21.269 25.1131 21.3118 25.1018 21.3555C25.0767 21.45 25.0501 21.5445 25.0227 21.6382L22.3882 22.3223L18.1541 19.8321C18.2162 19.6689 18.2638 19.4977 18.2937 19.3208H23.2309ZM17.9079 28.335L16.0168 26.4425V21.521C16.2372 21.492 16.4486 21.4354 16.648 21.3563L19.1291 25.5766L18.4511 28.192C18.2711 28.2454 18.0903 28.293 17.9079 28.335ZM12.8166 28.1315L12.1523 25.5613L14.6358 21.3401C14.8126 21.4136 14.999 21.4685 15.1927 21.5033V26.4425L13.3533 28.2833C13.3186 28.2744 13.2839 28.2664 13.2492 28.2567C13.1031 28.2179 12.9594 28.1759 12.8166 28.1315ZM8.64217 25.4959L9.30562 22.9838L13.5535 20.509C13.6665 20.6544 13.794 20.7884 13.9336 20.9072L11.4413 25.1421L8.92949 25.7923C8.83183 25.6954 8.73579 25.5968 8.64217 25.4959ZM14.3251 28.478L15.6052 27.1969L16.9168 28.5103C16.0612 28.6161 15.1911 28.6064 14.3251 28.478ZM20.6037 27.2624C20.2098 27.4926 19.803 27.6921 19.3882 27.8625L19.866 26.0177L21.7272 26.4999C21.3737 26.7777 20.9992 27.033 20.6037 27.2624ZM25.327 20.2513L23.9847 18.9089L25.3391 17.5535C25.4609 18.4428 25.4577 19.3499 25.327 20.2513ZM19.8515 12.4963L22.4019 11.8308C22.5085 11.9325 22.6134 12.0367 22.7159 12.1433L22.025 14.7006L17.7207 17.1755C17.6052 17.0357 17.4753 16.9081 17.334 16.7942L19.8515 12.4963ZM15.6625 17.2344C16.5665 17.2344 17.3009 17.9695 17.3009 18.8741C17.3009 19.7788 16.5665 20.5146 15.6625 20.5146C14.7585 20.5146 14.0232 19.7788 14.0232 18.8741C14.0232 17.9695 14.7585 17.2344 15.6625 17.2344ZM9.04007 11.8518L11.4743 12.4866L13.9974 16.7886C13.8634 16.896 13.7399 17.0164 13.6286 17.1472L9.32095 14.636L8.68172 12.2104C8.79794 12.0876 8.91739 11.9681 9.04007 11.8518ZM6.35236 16.3952C6.38868 16.2595 6.42742 16.1254 6.46858 15.993L8.90608 15.3492L13.1976 17.8507C13.1249 18.0244 13.0708 18.2086 13.0361 18.3984H8.07637L6.29666 16.6181C6.31442 16.5438 6.33299 16.4695 6.35236 16.3952ZM29.6555 21.324C29.6555 17.2773 28.5869 13.2863 26.5659 9.78156C24.5441 6.27764 21.6247 3.3561 18.1226 1.33275L15.8167 0L13.5099 1.33275C10.0086 3.3561 7.08926 6.27764 5.06743 9.78156C3.04559 13.2863 1.97696 17.2773 1.97696 21.324V48.5912H29.6555V21.324ZM0 52H31.2727V50.2965H0V52Z" fill="#222428"/>
</svg>
